<svg xmlns="http://www.w3.org/2000/svg" width="820" height="241"><path fill="none" fill-opacity="0" stroke="#F5F5F5" stroke-width=".3" d="M0 241h820V0H0v241M399 43c-3.32 22.26 16.37 41.97 13 64-2.61-5.93-7.48-8.14-14-6 1.05-8.39 4.34-15.55 1-24-7.9 9-13.6 1.26-11-9-8.74 1.46-5.61-9.24-.25-12.25 5.37-3 5.79-11.79 11.25-12.75m-17 3c-12.86 12.62-17.64 33.12-36 40 .23-2.51 3.01-4.05 2-7-10.62 3.98-16.27 17-27 20 2.32-8.92 12.79-12.41 17.75-20.25 4.96-7.83 14.96-9.32 21-17C365.8 54.07 374.82 51.51 382 46m67 58c-18.83-10.97-33.5-32.11-41-52 5.69 8.89 16.62 14.71 21.75 24.25C434.88 85.78 447.4 92.23 449 104m-199-4c-.05 1.74-.39 1.72-2 2 .37.18.91 1.63 1 2 .37 1.45 0 3.5 0 5v3c5.57 2.44 3.74 5.59 1 10-.22.36 0 1 0 1-.36 1.58.27 3.4 0 5 6.58-1.07 14.19-2.62 19-7-.03-.5 0-1 0-1 .01-1.31.62-1.82 1-3 1.17-3.59 3.25-6.12 6-9 1.93.66 2.67 3.39 5 3 .3-1.25 1.83-1.71 2-3 3.03.41 5.26 3.74 7 6 5.99 3.14 10.16-7.17 15.25-1.24 5.08 5.92 8.9-4.12 13.83-3.68s10.18 4.49 14.62-1.38c4.43-5.88 9.83-6.35 16.3-6.7-2.28 8.12 3.35 10.79 9 6-1.26 17.3 24.74 10.99 23-2 2.2-2.2 10.74-1.29 14-1 1.65 1.09.95 4.16 1 6 4.13 5.59 13.82-5.53 17-1 .2-1.64-.15-3.35 0-5 4.59 1.14 12.81-2.41 15 2 3.67 2.07 7.5 8.15 12.07 5.07 4.58-3.08 12.95 1.6 16.93-1.07.02-.53 1.53-1.98 0-3 7.12-1.9 6.07-9.34 14.03-10.97 7.95-1.64 9.21 8.92 15.97 9.97-.41 3.18 1.69 5.72 1 9 .25 1.68.72 2.6 0 5-.14.46 0 1 0 1 7.47-.14 16.69-.28 24 0s15.65-2.54 20 4c3.34 5.02 2.42 16.03 3 22 1.58 1.09 5.23-.82 7 0 .59-2.84-1.22-6.98 1-9 .86-3.51.39-4.86 3-7 3.77-3.1 15.64-3.33 20-1 1.62.87 1.91 4.26 5 4v11c1.15-.4 2.91.52 4 0 .8-3.72 1.48-8.6 1-13 2.76-.84 8.57 1.96 9-2 2.75-.98 4.3-.96 7 0 4.73 1.68 19.13-.29 16 10 2.19.53 5.08 1.7 4 5h11c-.44-3.61.33-7.37 0-11h24v6c.01-.06 1 0 1 0 1.26 0 4.98.66 6 0 .88-.92.65-1.91 1-3 .81-2.55 1.91-5.51 0-8 6.94-5.62 16.26-6.85 23 0-2.4 5.27.22 10.6-1 16 .03.14.85 1.49 1 2 1.99 2.32 6.47.29 9 1v7c.35.05.74.78 1 1 3.73 3.22 3.76 6.25 1 10 3.26 5.96 11.32 7.27 14 13 5.33-.56 14.28-.73 14-8h14c.25 2.36 1.69 5 4 6 .74 1.91-.58 2.21-1 5 .19.89 0 2.09 0 3 0 2.15-.47 4.91 0 7 .59 1.49 1.34 3.46 3 4 2.09-2.06.23-4.23-1-6 4.95 2.1 8.55-4.6 8.92-8.08.38-3.48 5.65-5.83.08-8.92 3.12-1.83 4.82-5.52 5-9 8.36-2.52 11.31 3.07 16 8-.78 2.21-2.94 3.81-2 7 4.59.68 2.36 12.97 11 12-4.55 2.94 1.57 8.02 2 12 5.18-9.11 20.58-.73 17 6 5.63.47 9.62 5.04 8 11 .52 1.32 2.39 2.25 3 4 1.55 4.43 2.41 8.01 4 12H10v-14c7.03.05 13.13-3.36 20-4 2-4.41 8.35-7.82 14-9-.74-4.28 1.33-7.8 1-12 2.03-1.71 4.96-.31 7-2-1.69-4.17-3.72-12.13 3.22-12.78 6.95-.64 5.26 8.38 4.78 12.78 8.69-1.66 4.67 11.39 12 11-.37-2.47 2.38-3.1 4-4-.42-4.63.31-9.36 0-14h3c.5-.5-.4-2.4 0-3 1.2.67 2.58 1.64 3 3 3.27-.06 5.44-1.49 8-1-.11-1.7-.38-4.84 2-3 1.02-3.45 1.15-15.2-1-18-1.76-.87-5.48-.86-5-4 1.74 1.48 3.58 2.46 6 2 1.41-.54 2.2-3.72 2-5 .83.41 1.87.97 2 2 1.76-1.27 3.98-2.44 6-3-.67-1.81-5-2.98-2-5 4.25-1.59 7-10.7 11-15 .41-1.88-.53-4.15 0-6 .65-2.27 1.33-2.34 2 0 .79.93-.25 4.73 0 6 3 2.83 5.61 8.69 8 12 .98.31 2.97.1 4 0 7.29-2.35-2.27-16.47 1-21s16.64-.76 22-2v21c5.95-1.93 5.21 4.03 5 8v1c2.15 2.7 1.81-1.67 2-3 1.03-7.19-.77-14.78 0-22h6c.61-3.86 1.3-7.24 0-11 6.25-6.68 15.49-5.91 22 0-2.59 4.69.26 10.45-1 15 1.88.01 3.87.03 5 0 2.14-3.15-.84-11.8-1-15 6.76-5.18 15.48-7.26 22 0-2.26 8.38.44 18.11-1 26 2.05 3.64 14.02-3.58 18.02-4.98 4.01-1.39 15.56-5.62 17.98-10.02.37-2.33 1.58-6.72 1-9-1.02-4.02-7.77-6.97-1-11 .92-2.25-1.47-8.68 2-10-1.18-.16-1.93-.45-3-1 .67-1.2 1.64-2.58 3-3 .67-1.8-1.2-4.98 1-6 1.21 2.47 1.42 5.87 4 8Z"/><path fill="none" fill-opacity="0" stroke="#C7C8CC" stroke-width=".3" d="M399 43c-5.46.96-5.88 9.75-11.25 12.75-5.36 3.01-8.49 13.71.25 12.25-2.6 10.26 3.1 18 11 9 3.34 8.45.05 15.61-1 24 6.52-2.14 11.39.07 14 6 3.37-22.03-16.32-41.74-13-64Z"/><path fill="none" fill-opacity="0" stroke="#C9CACD" stroke-width=".3" d="M382 46c-7.18 5.51-16.2 8.07-22.25 15.75-6.04 7.68-16.04 9.17-21 17C333.79 86.59 323.32 90.08 321 99c10.73-3 16.38-16.02 27-20 1.01 2.95-1.77 4.49-2 7 18.36-6.88 23.14-27.38 36-40Z"/><path fill="none" fill-opacity="0" stroke="#CACBCD" stroke-width=".3" d="M449 104c-1.6-11.77-14.12-18.22-19.25-27.75C424.62 66.71 413.69 60.89 408 52c7.5 19.89 22.17 41.03 41 52Z"/><path fill="none" fill-opacity="0" stroke="#8E8E8E" stroke-width=".3" d="M245 98c.93-.14 4.88.79 5 2-2.58-2.13-2.79-5.53-4-8-2.2 1.02-.33 4.2-1 6Z"/><path fill="none" fill-opacity="0" stroke="#6C6D71" stroke-width=".3" d="M458 110c-.1 2.49.03 5.38 0 8-.03 2.52-.35 6.7.2 9.25s-1.26 7.72-1.2 6.75c5.55 22.41 6.48 46.05 6 70 3.12.82 6.83-.61 10 0-1.58-5.01 3.86-4.02 7-4-.19-24.91.32-49.68 0-74 3.85.19 4.53-8.29 9-5 0 0-.14-.54 0-1-.62-1.54.01-3.07 0-5 .69-3.28-1.41-5.82-1-9-6.76-1.05-8.02-11.61-15.97-9.97-7.96 1.63-6.91 9.07-14.03 10.97 1.53 1.02.02 2.47 0 3Z"/><path fill="none" fill-opacity="0" stroke="#282828" stroke-width=".3" d="M245 102c.82.11 2.18.14 3 0 1.61-.28 1.95-.26 2-2-.12-1.21-4.07-2.14-5-2-1.36.42-2.33 1.8-3 3 1.07.55 1.82.84 3 1Z"/><path fill="none" fill-opacity="0" stroke="#CFD0D3" stroke-width=".3" d="M290 114c1.95 5.29-.67 12.24 0 18s0 13.1 0 19c.64 1.55 3.07 1.13 3 1 0-11.47-3.37-26 6-34 2.67 3.27 5.33 3.04 8 0 9.8 5.79 7.25 16.64 7 27s.95 23.47 0 34c.48.78.92 1.91 2 2 2.86-16.98-6.4-38.72 6-52 3.95 4.06 5.95-.03 10 1 4.33-.08 8.67.06 13 0 .62 8.92-1.27 18.52 1 27 .22.38 0 1 0 1 2.99.35 3.25-1.35 3-4h4c-.4-4.23-1.27-11.74.33-15.67s11.58 1.76 14.67-.33v38c9.94-.52-.41-17.75 4.78-23.22S370.2 132.64 380 132c-.14.08 2.12-2.26 2-2 .78-8.26-.58-16.72 0-25 1.74 12.99-24.26 19.3-23 2-5.65 4.79-11.28 2.12-9-6-6.47.35-11.87.82-16.3 6.7-4.44 5.87-9.69 1.82-14.62 1.38s-8.75 9.6-13.83 3.68c-5.09-5.93-9.26 4.38-15.25 1.24Z"/><path fill="none" fill-opacity="0" stroke="#7C7D7D" stroke-width=".3" d="M243 112c.67-.4 1.34-.65 2-1 1.11-.59 2.67-1.54 4 0v-2c-1.63-.23-3.36.18-5 0-1.14-3.43 1.39-7.97 5-5-.09-.37-.63-1.82-1-2-.82.14-2.18.11-3 0-3.47 1.32-1.08 7.75-2 10Z"/><path fill="none" fill-opacity="0" stroke="#1C1C1C" stroke-width=".3" d="M249 109c0-1.5.37-3.55 0-5-3.61-2.97-6.14 1.57-5 5 1.64.18 3.37-.23 5 0Z"/><path fill="none" fill-opacity="0" stroke="#585858" stroke-width=".3" d="M382 105c4.64-.31 9.37.42 14 0v-1c-3.26-.29-11.8-1.2-14 1Z"/><path fill="none" fill-opacity="0" stroke="#909191" stroke-width=".3" d="M396 105c0 8.21-.77 16.83 0 25 .19.41 1.88.74 2 1-.63-6.75-.8-13.92-1-21-.05-1.84.65-4.91-1-6z"/><path fill="none" fill-opacity="0" stroke="#585859" stroke-width=".3" d="M414 109c-.71 5.9.84 12.12 0 18-1.02 7.16-3.32 14.98-2 23-1.88.47-4.93-1.06-6 1 2.33-.05 4.67.04 7 0-1-15.87 3.54-29.95 2-46h13c1.25 8.36-2.55 19.23 2 26-.22-1.34-.84-2.48-1-4-.6-5.65 2.43-15.97 0-21-2.19-4.41-10.41-.86-15-2-.15 1.65.2 3.36 0 5Z"/><path fill="none" fill-opacity="0" stroke="#010101" stroke-width=".3" d="M382 130c-.61 6.54-.7 14.94-2 21-1.76 8.21-.76 18.07-1 27-3.56-.62-7.16-1.39-11-1 .02 0-2.58.94-2 1 0 .62 3.54 3.58 4 5 .35.23 1 0 1 0h8v6c-1.24 1.85-5.89 1-8 1h-1c-.23.16-.23 1.65 0 2 3.36.57 7.95 1.65 12 1v11c-2.72-2.28.77-7.79-2-10-2.3 7.42-.36 16.82-1 25-6.28 1.55-3.34-6.44-4-10h-44c1.74-5.33-3.08-5.49-7-5-1.09-3.86-2.64-7.66-2-12-1.18-3.93-6.77-8.44-9-13-.2-.4 0-1 0-1-.27-.95-1.36-3.4-3-3-1.86 6.18-8.7 9.73-9 16-1.23 4.28-1.33 8.82-3 13-2.19.52-5.62-1.14-7 1 3.95.74 7.05.46 11 2s-.47 5.2-5 4-1.55 7.16-1 9c13.51.66 25.43-8.85 38 0-7.18 1.06-16.08-5.26-24.02-.02-7.95 5.23-18.18 1.34-17.98-8.98 2.93-1.81 7.56.18 10-2-5.07-2.23-11.74-1.43-16-5-6.79-4.13 8.04-8.83 12-8-2.9-5.29-14.93 1.2-15.99-7.01s8.6-7.44 13.99-9.99c-4.71-2.63-16.61-1.4-16-9 .62-7.6 16.76-1.82 11-10-5.62-4.79-15.55-5.42-18.26-13.74-2.7-8.32 2.79-19.41-.74-28.26-.1-.95-2.96 1.89-3 2 0 0-.03.5 0 1 .37 5.57-1.47 11.11-1 17 .92 11.56-5.84 16.3-16 21-1.43.66-3.29 1.28-5 2 1.14 5.52 8.52 5.18 13 6 3.15 13.26-12.09 8.28-20 9 0 .5-.08 1.51 0 2 .42 2.64 13.04 3.16 16 5 1.05.65 1.4.95 2 2 4.99 8.66-7.63 8.36-13 9-.2.02-.66 1-1 1 .78 4.67 14.52 2.3 13 9-4.09.63-7.63 3.31-12 3-2.25.52-5.2 2.13-8 2 5.46-3.18 1.9-9.27 1-14 4.04-.44 6.66-3.86 3-7-1.26-4.22-2.86-17.48-6-19-7.45-.84-15.5 0-23 0h-4c-.99-.12-2.01.09-3 0 3.71 9.62-13.98 24.4-1 26-7.84 2.57 1.87 14.51-8 13v-72h-9c-1.13.03-3.12.01-5 0-2-.01-4 .01-6 0v71c-5.91-3.72-2.2-14.96-3-23s.6-18.72 0-27c-5.41 1.37-6.5-2.77-10-5-1.13.57-1.12 2.52-3 2-1.63.23-3.36-.18-5 0-.19 1.33.15 5.7-2 3-1.3-.21-2.69.16-4 0v20c0 8.26.8 17.18-1 25-.94-.57-1.82-1.15-3-1-4.29-.88-10.7-4.26-13-7 4.31-.74 7.67-4.26 12-5 .03-.12.85-1.57 1-2 .01.23-6.8 1.74-9 1-1.34-4.33-7.12-5.48-11-8 .63-2.38 4.57-1.95 4-5-1.5-.39-5.16-2.05-5-5 4.28-.84 8.79-3.04 12-6-6.48 1.33-9.18-4.83-15-6 4.89-3.1 2.42-3.89 0-8-2.39-3.31-5-9.17-8-12-.26-.25-1.66-.23-2 0-4 4.3-6.75 13.41-11 15-3 2.02 1.33 3.19 2 5-2.02.56-4.24 1.73-6 3-1.29.93-2.05 2.65-4 3-2.42.46-4.26-.52-6-2-.48 3.14 3.24 3.13 5 4 2.99 1.48 5.52 3.93 9 4-.24 1.89-1.5 6.06-4 4-.92 2.77 2.19 3.9 3 6-2.19 1.69-4.54 2.82-7 4-2.38-1.84-2.11 1.3-2 3-2.56-.49-4.73.94-8 1-.34.01-.75.91-1 1 1.82.93 3.47 2.01 5 3 2.21 1.42 5.22 1.09 4 5-4.65.58-8.65 3.34-13 5-.36.23-1 0-1 0-1.62.9-4.37 1.53-4 4-7.33.39-3.31-12.66-12-11 .48-4.4 2.17-13.42-4.78-12.78-6.94.65-4.91 8.61-3.22 12.78-2.04 1.69-4.97.29-7 2 .33 4.2-1.74 7.72-1 12-5.65 1.18-12 4.59-14 9-6.87.64-12.97 4.05-20 4v14h800c-1.59-3.99-2.45-7.57-4-12-.57-1.29-2.54-2.44-3-4 1.62-5.96-2.37-10.53-8-11 3.58-6.73-11.82-15.11-17-6-.43-3.98-6.55-9.06-2-12-8.64.97-6.41-11.32-11-12-.94-3.19 1.22-4.79 2-7-4.69-4.93-7.64-10.52-16-8-.18 3.48-1.88 7.17-5 9 5.57 3.09.3 5.44-.08 8.92-.37 3.48-3.97 10.18-8.92 8.08 1.23 1.77 3.09 3.94 1 6-1.66-.54-2.41-2.51-3-4-1.13-2.81-.58-4.34 0-7 0-.91.19-2.11 0-3-.38-1.76-1.16-3.21 1-5-2.31-1-3.75-3.64-4-6h-14c.28 7.27-8.67 7.44-14 8-2.68-5.73-10.74-7.04-14-13 2.76-3.75 2.73-6.78-1-10-2.71.87-6.31-.92-9 0-2.61.89-5.21 5.62-2 8-4.27.49-7.06 3.2-6 8-3.72 2.49-9.76 3.51-7 9-1.2-2.72-3.16-1.48-5 0-2.01-3.18 1.13-10.82-5-10-1.03-.56-2.9.43-4 0-1.31-4.62 1.48-6.66 3-10h-4c-3.34-2.17-6.4-5.49-8-9-2.22 4.28-6.67 9.58-12 10 1.99 2.26 4.07 4.63 3 9h-4c-3.13 1.1-7.21 1.25-11 1 .84-3.93-.36-7.33-5-6 3.94-5.49-6.58-7.1-3-15-5.93 1.63-10.06-2-6-7-1.28-.28-3.5.76-4-1-3.99-2.42-6.8-5.23-9-9-1.91 3.97-5.47 8.29-10 9-2.7 2.51.98 3.9 0 8h-5c-.49-.08-1.51-.07-2 0-.42.51-.87 1.35-1 2-.85 4.11-.4 9.88-7 8 2.77 1.79 5.97 4.96 0 5-1.53 6.25-2.04 19.88-12 15 .57 2.78 4.48 1.19 5 4-5.78-3.35-10.35-1.83-16 0-1.15.46-2.81-.35-4 0 .46 2.28-.11 4.76-3 4-.5-.01-1 0-1 0h-9c3.74-5.49-4.89-3.82-8-4 1.19-4.43-6.1-1.77-4-7-.91 2.76-2.06 5.07-6 4-.8 3.85-1.31 7.85-1 12-7.76-1.73-.39-15.08-1.02-20.02-.64-4.95-.51-10.59-4.98-14.98-3.13-.06-3.19 4.51-7 3 2.49 7.12-.02 9.11 1.78 17.22 1.79 8.12-.88 18.44.22 26.78-4.44 1.46-4.28-2.93-4-6h-12c-3.14-.02-8.58-1.01-7 4-3.17-.61-6.88.82-10 0-3.29-.86-2.26-.34-2-4-7.17.1-12.92.53-20 0-1.15 7.75 2.41 17.95-2 24-3.61-9.21-2.61-20.6-3-31 4.03-1.06 12.05 2.64 13-3-4.56-1.12-13.99 3.07-13.99-4.01s9.46-2.83 13.99-3.99c-1.67-4 2.87-3.11 3-6-5.21-.54-18.9 6.57-20.97-1.03-2.07-7.59 2.29-17.65-1.03-24.97-.58-6.21 1.01-12.85 0-19-4.55-6.77-.75-17.64-2-26h-13c1.54 16.05-3 30.13-2 46-2.33.04-4.67-.05-7 0-2.61.05-5.4.24-8 0-2.66-2.55-1.63-17.03-2-21-.77-8.17 0-16.79 0-25-4.63.42-9.36-.31-14 0-.58 8.28.78 16.74 0 25m279 55c.62 3.5-1.27 8.32 1 11 3.9-2.15 4.59-9.92 0-11 7.24-1.12 5.06 13.86-2 13 .64-4.17-1.29-9.66 1-13m-271 9c-.56 2.52 1.19 6.3-1 8 .56-2.52-1.19-6.3 1-8m-163 15c6.42-1.34 8.08 4.88 7 10-.03-6.83-4.01-8.96-10-10 4.44-5.12-4.25-6.36-6-11-10.79 2.24-7.34 13.74-16.68 16.32s-24.25-.52-34.32.68c8.88-.78 19.72-1.97 29.01-1.99 9.29-.03 11.01-8.31 17.24-13.76s16.48 5.89 13.75 9.75m13 10c.11-3.26.45-6.61-2-9 10.97-4.97 13.13 10.63 2 9m276 0c-3.26 7.27-15.18-.67-20 5 3.98 3.04 9.24 1.74 14 2-2.28 2.72-7.79-.77-10 2 2.34 1.13 5.46 1.73 8 3-5.75 2.37-10.81-2.18-14-6 2.97-8.84 16.79-.31 22-6m-127 1v11c13.8-1.25 29.3 2.55 42-2-3.52 5.79-13.09 2.24-20 3s-15.9-.57-23 0c.63-3.83-1.28-8.99 1-12m67 5c2.72 7.72 12.02 3.09 18.22 1.22 6.2-1.86 15.16-.65 20.78 2.78-5.11 1.05-14.49-3.8-20.22-1.22s-16.75 6.94-18.78-.78c-5.34-.63-11.12 4.57-16 1 4.9-1.25 10.81-1.64 16-3Z"/><path fill="none" fill-opacity="0" stroke="#CFD0D3" stroke-width=".3" d="M429 127c4.3.45 9.12-1.04 13 1 1.85-3.87 3.71-5.47 8-6 2.63-.33 5.36.24 8 0v-4c.03-2.62-.1-5.51 0-8-3.98 2.67-12.35-2.01-16.93 1.07-4.57 3.08-8.4-3-12.07-5.07 2.43 5.03-.6 15.35 0 21Z"/><path fill="none" fill-opacity="0" stroke="#66676B" stroke-width=".3" d="M270 117c.96-.32 1.67.18 2 1 3.53 8.85-1.96 19.94.74 28.26 2.71 8.32 12.64 8.95 18.26 13.74-1.96-1.51-1-6.84-1-9 0-5.9.67-13.24 0-19s1.95-12.71 0-18c-1.95-5.28-6.57-2.77-9-3-2.33.39-3.07-2.34-5-3-2.75 2.88-4.83 5.41-6 9Z"/><path fill="none" fill-opacity="0" stroke="#868789" stroke-width=".3" d="M281 111c2.43.23 7.05-2.28 9 3-1.74-2.26-3.97-5.59-7-6-.17 1.29-1.7 1.75-2 3Z"/><path fill="none" fill-opacity="0" stroke="#D0D1D4" stroke-width=".3" d="M397 110c.2 7.08.37 14.25 1 21 .58 6.21 0 12.76 0 19 2.65-.24 5.35.18 8 0v-23h8c.84-5.88-.71-12.1 0-18-3.18-4.53-12.87 6.59-17 1Z"/><path fill="none" fill-opacity="0" stroke="#545454" stroke-width=".3" d="M245 111c1.77-.36 2.49.66 4 1v-1c-1.33-1.54-2.89-.59-4 0Z"/><path fill="none" fill-opacity="0" stroke="#1B1B1B" stroke-width=".3" d="M243 112c-6.77 4.03-.02 6.98 1 11 2 .56 4.3-.13 6-1 2.74-4.41 4.57-7.56-1-10-1.51-.34-2.23-1.36-4-1-.66.35-1.33.6-2 1Z"/><path fill="none" fill-opacity="0" stroke="#9D9EA0" stroke-width=".3" d="M489 120c.72-2.4.25-3.32 0-5 .01 1.93-.62 3.46 0 5Z"/><path fill="none" fill-opacity="0" stroke="#444547" stroke-width=".3" d="M161 132c-1.17 7.33.46 14.14-1 22 1.88.52 1.87-1.43 3-2 3.5 2.23 4.59 6.37 10 5 .6 8.28-.8 18.96 0 27s-2.91 19.28 3 23v-71c2 .01 4-.01 6 0 1.26-4.55-1.59-10.31 1-15-6.51-5.91-15.75-6.68-22 0 1.3 3.76.61 7.14 0 11ZM187 136h9v72c9.87 1.51.16-10.43 8-13-12.98-1.6 4.71-16.38 1-26 .99.09 2.01-.12 3 0-1.5-4.34-.45-10.48 0-15 .3-2.95-.69-4.06-1-7 1.44-7.89-1.26-17.62 1-26-6.52-7.26-15.24-5.18-22 0 .16 3.2 3.14 11.85 1 15Z"/><path fill="none" fill-opacity="0" stroke="#393A3C" stroke-width=".3" d="M269 120c.04-.11 2.9-2.95 3-2-.33-.82-1.04-1.32-2-1-.38 1.18-.99 1.69-1 3Z"/><path fill="none" fill-opacity="0" stroke="#6B6C70" stroke-width=".3" d="M293 152c0 2.04.82 6.16 0 8 1.56.47 3.8 1.69 6 1 .41 4.9-.55 12.36 0 17s-1.96 12.94 2 13c.3-6.27 7.14-9.82 9-16 1.64-.4 2.73 2.05 3 3 0-10.45.19-22.74 0-33s2.66-20.23-6-27c-2.67 3.04-5.33 3.27-8 0-9.37 8-6 22.53-6 34Z"/><path fill="none" fill-opacity="0" stroke="#989A9E" stroke-width=".3" d="M313 178s-.2.6 0 1c.25.25 1 0 1 0 .95-10.53-.25-23.64 0-34s2.8-21.21-7-27c8.66 6.77 5.81 16.74 6 27s0 22.55 0 33Z"/><path fill="none" fill-opacity="0" stroke="#8E8F93" stroke-width=".3" d="M450 122c4.77.89 6.12 8.43 7 12-.06.97 1.75-4.2 1.2-6.75s-.23-6.73-.2-9.25v4c-2.64.24-5.37-.33-8 0Z"/><path fill="none" fill-opacity="0" stroke="#444547" stroke-width=".3" d="M480 200h12c-.28 3.07-.44 7.46 4 6-1.1-8.34 1.57-18.66-.22-26.78-1.8-8.11.71-10.1-1.78-17.22 3.81 1.51 3.87-3.06 7-3 4.47 4.39 4.34 10.03 4.98 14.98.63 4.94-6.74 18.29 1.02 20.02-.31-4.15.2-8.15 1-12 3.94 1.07 5.09-1.24 6-4-2.1 5.23 5.19 2.57 4 7 3.11.18 11.74-1.49 8 4h9c-.93-10.24 1.75-23.06 0-33s2.08-21.98-2-31c-4.35-6.54-12.69-3.72-20-4s-16.53-.14-24 0c-4.47-3.29-5.15 5.19-9 5 .32 24.32-.19 49.09 0 74Z"/><path fill="none" fill-opacity="0" stroke="#CFD0D2" stroke-width=".3" d="M250 123c-1.84 2.35-.47 12.11 1 15h17c-.47-5.89 1.37-11.43 1-17-4.81 4.38-12.42 5.93-19 7 .27-1.6-.36-3.42 0-5Z"/><path fill="none" fill-opacity="0" stroke="#949599" stroke-width=".3" d="M244 123c.58 2.28-.63 6.67-1 9-.65 4.09-1.59 8.55-1 13h-19c2.43 7.95-3.49 9.09-10 8-1.59 1.91-.05 6.03-4 5 .07 3.09-.12 7.37 0 11h3c3.54-1.92-.59-12.02 1-15 9.17-.66 19.66 1.33 28-1-.08-.98-.01-2.02 0-3 .01-1.83-.09-3.48 1-5 2.67.87-.02 4.38 3 4v-11h5c.47.11 1 0 1 0-1.47-2.89-2.84-12.65-1-15 0 0-.22-.64 0-1-1.7.87-4 1.56-6 1Z"/><path fill="none" fill-opacity="0" stroke="#444547" stroke-width=".3" d="M442 128c-7.1 14.84-4.85 32.8-7 49-7.94-3.91 1.33-20.61-5-27 3.32 7.32-1.04 17.38 1.03 24.97 2.07 7.6 15.76.49 20.97 1.03-.13 2.89-4.67 2-3 6-4.53 1.16-13.99-3.09-13.99 3.99s9.43 2.89 13.99 4.01c-.95 5.64-8.97 1.94-13 3 .39 10.4-.61 21.79 3 31 4.41-6.05.85-16.25 2-24 7.08.53 12.83.1 20 0-.26 3.66-1.29 3.14 2 4 .48-23.95-.45-47.59-6-70-.88-3.57-2.23-11.11-7-12-4.29.53-6.15 2.13-8 6Z"/><path fill="none" fill-opacity="0" stroke="#454648" stroke-width=".3" d="M656 137c-.34 2.73-.11 8.27-.79 11.23-.67 2.96 1.25 8.74.58 11-.68 2.26 1.31 11-.79 11.77 6.13-.82 2.99 6.82 5 10 1.84-1.48 3.8-2.72 5 0-2.76-5.49 3.28-6.51 7-9-1.06-4.8 1.73-7.51 6-8-3.21-2.38-.61-7.11 2-8-2.21-1.05-1.99-8.63-2-11 1.22-5.4-1.4-10.73 1-16-6.74-6.85-16.06-5.62-23 0 1.91 2.49.81 5.45 0 8Z"/><path fill="none" fill-opacity="0" stroke="#68696C" stroke-width=".3" d="M535 189s.5-.01 1 0c1.19-13.2 1.28-28.81 0-42-.58-5.97.34-16.98-3-22 4.08 9.02.25 21.06 2 31s-.93 22.76 0 33Z"/><path fill="none" fill-opacity="0" stroke="#949599" stroke-width=".3" d="M125 150c6.04-.59 12.59-1.62 19-1v36c1.44-3.68 3.28.76 1 2-.15.43-.97 1.88-1 2-.62 2.41-.84 10.21 1 12 1.18-.15 2.06.43 3 1 1.8-7.82 1-16.74 1-25-.37-3.82-4.82-23.25 4-21 .21-3.97.95-9.93-5-8v-21c-5.36 1.24-18.73-2.53-22 2s6.29 18.65-1 21Z"/><path fill="none" fill-opacity="0" stroke="#96979C" stroke-width=".3" d="M398 150v1c2.6.24 5.39.05 8 0 1.07-2.06 4.12-.53 6-1-1.32-8.02.98-15.84 2-23h-8v23c-2.65.18-5.35-.24-8 0Z"/><path fill="none" fill-opacity="0" stroke="#919297" stroke-width=".3" d="M430 131c1.01 6.15-.58 12.79 0 19 6.33 6.39-2.94 23.09 5 27 2.15-16.2-.1-34.16 7-49-3.88-2.04-8.7-.55-13-1 .16 1.52.78 2.66 1 4Z"/><path fill="none" fill-opacity="0" stroke="#6C6D71" stroke-width=".3" d="M314 179s-.75.25-1 0c2.23 4.56 7.82 9.07 9 13 .26-1.34 3.97-6.46 2-10h10v-28h3c-2.07-7.1 3.96-19.8-5-24-4.05-1.03-6.05 3.06-10-1-12.4 13.28-3.14 35.02-6 52-1.08-.09-1.52-1.22-2-2Z"/><path fill="none" fill-opacity="0" stroke="#8B8B8C" stroke-width=".3" d="M547 131c3.47-2.01 16.08-2.38 20-1-4.36-2.33-16.23-2.1-20 1Z"/><path fill="none" fill-opacity="0" stroke="#AEAFB0" stroke-width=".3" d="M586 130c1.79-.37 5.21-.37 7 0-2.7-.96-4.25-.98-7 0Z"/><path fill="none" fill-opacity="0" stroke="#A5A5A5" stroke-width=".3" d="M111 132c.21-.25 1.79-.25 2 0-.67-2.34-1.35-2.27-2 0Z"/><path fill="none" fill-opacity="0" stroke="#95969B" stroke-width=".3" d="M337 154c.28.95 3.45 1.98 2 4 2.24-.56 4.48-1.38 7-1-2.27-8.48-.38-18.08-1-27-4.33.06-8.67-.08-13 0 8.96 4.2 2.93 16.9 5 24Z"/><path fill="none" fill-opacity="0" stroke="#545455" stroke-width=".3" d="M380 132c-1.77 5.46.56 13.25 0 19 1.3-6.06 1.39-14.46 2-21 .12-.26-2.14 2.08-2 2Z"/><path fill="none" fill-opacity="0" stroke="#353637" stroke-width=".3" d="M398 151v-1c0-6.24.58-12.79 0-19-.12-.26-1.81-.59-2-1 .37 3.97-.66 18.45 2 21Z"/><path fill="none" fill-opacity="0" stroke="#444547" stroke-width=".3" d="M547 131c-2.61 2.14-2.14 3.49-3 7-1.86 15.35-.62 31.3-1 47 5.65-1.83 10.22-3.35 16 0-.52-2.81-4.43-1.22-5-4 9.96 4.88 10.47-8.75 12-15 5.97-.04 2.77-3.21 0-5 6.6 1.88 6.15-3.89 7-8-.08-1.93-1-5.36-1-8v-11c-3.09.26-3.38-3.13-5-4-3.92-1.38-16.53-1.01-20 1Z"/><path fill="none" fill-opacity="0" stroke="#6C6D71" stroke-width=".3" d="M576 145c-.69 3.22.01 3.59-2 6 .49-.07 1.51-.08 2 0 .73-.1 2.6-1.91 4-1 1.4-2.94-4.41-6.76 1-7 4.53-.71 8.09-5.03 10-9 2.2 3.77 5.01 6.58 9 9 1.89-.19.14-2.24 0-3h9c3.13-10.29-11.27-8.32-16-10-1.79-.37-5.21-.37-7 0-.43 3.96-6.24 1.16-9 2 .48 4.4-.2 9.28-1 13Z"/><path fill="none" fill-opacity="0" stroke="#545454" stroke-width=".3" d="M111 138c.34-.23 1.74-.25 2 0-.25-1.27.79-5.07 0-6-.21-.25-1.79-.25-2 0-.53 1.85.41 4.12 0 6Z"/><path fill="none" fill-opacity="0" stroke="#96979B" stroke-width=".3" d="M155 154c1.64-.18 3.37.23 5 0 1.46-7.86-.17-14.67 1-22h-6c-.77 7.22 1.03 14.81 0 22Z"/><path fill="none" fill-opacity="0" stroke="#D0D1D4" stroke-width=".3" d="M207 147c.31 2.94 1.3 4.05 1 7 .09.86.96 2.41 1 4 3.95 1.03 2.41-3.09 4-5 6.51 1.09 12.43-.05 10-8h19c-.59-4.45.35-8.91 1-13-2.42 4.4-13.97 8.63-17.98 10.02-4 1.4-15.97 8.62-18.02 4.98Z"/><path fill="none" fill-opacity="0" stroke="#95969B" stroke-width=".3" d="M353 154c.84 8.97 1.45 18.65 1 28 3.17.61 7.65-1.25 10 1 1.41 2.01-1.06 6.74 0 9h6c-.23-.35-.23-1.84 0-2-3.28 2.12-3.24-9.09 0-7-.46-1.42-4-4.38-4-5-3.45-.36 2.2-1 2-1 3.84-.39 7.44.38 11 1 .24-8.93-.76-18.79 1-27 .56-5.75-1.77-13.54 0-19-9.8.64-2.03 15.31-7.22 20.78s5.16 22.7-4.78 23.22v-38c-3.09 2.09-13.07-3.6-14.67.33s-.73 11.44-.33 15.67Z"/><path fill="none" fill-opacity="0" stroke="#6C6D71" stroke-width=".3" d="M624 145c.21 1.75.73 7.07 4 6 .66 6.5-1.32 14.33 1 20h4c1.07-4.37-1.01-6.74-3-9 5.33-.42 9.78-5.72 12-10 1.6 3.51 4.66 6.83 8 9-3.27-4.75-1.1-15.56-2-21v-6h-24c.33 3.63-.44 7.39 0 11Z"/><path fill="none" fill-opacity="0" stroke="#909195" stroke-width=".3" d="M655 140c-1.59 1.66-4.41 1.24-6 0 0 0-.99-.06-1 0 .9 5.44-1.27 16.25 2 21h4c-1.52 3.34-4.31 5.38-3 10 1.1.43 2.97-.56 4 0 2.1-.77.11-9.51.79-11.77.67-2.26-1.25-8.04-.58-11 .68-2.96.45-8.5.79-11.23-.35 1.09-.12 2.08-1 3Z"/><path fill="none" fill-opacity="0" stroke="#525356" stroke-width=".3" d="M245 149v1h6c0-3.91.76-8.53-1-12h-5z"/><path fill="none" fill-opacity="0" stroke="#6C6D71" stroke-width=".3" d="M251 150c0 1 .02 2 0 3-.03 1.87-.69 4.93 1 6 10.16-4.7 16.92-9.44 16-21h-17s-.53.11-1 0c1.76 3.47 1 8.09 1 12Z"/><path fill="none" fill-opacity="0" stroke="#949599" stroke-width=".3" d="M536 147c1.28 13.19 1.19 28.8 0 42 2.89.76 3.46-1.72 3-4 1.19-.35 2.85.46 4 0 .38-15.7-.86-31.65 1-47-2.22 2.02-.41 6.16-1 9-1.77-.82-5.42 1.09-7 0Z"/><path fill="none" fill-opacity="0" stroke="#444547" stroke-width=".3" d="M600 143c.5 1.76 2.72.72 4 1-4.06 5 .07 8.63 6 7-3.58 7.9 6.94 9.51 3 15 4.64-1.33 5.84 2.07 5 6 3.79.25 7.87.1 11-1-2.32-5.67-.34-13.5-1-20-3.27 1.07-3.79-4.25-4-6h-11c1.08-3.3-1.81-4.47-4-5h-9c.14.76 1.89 2.81 0 3Z"/><path fill="none" fill-opacity="0" stroke="#BBBDBF" stroke-width=".3" d="M655 140c-1.02.66-4.74 0-6 0 1.59 1.24 4.41 1.66 6 0Z"/><path fill="none" fill-opacity="0" stroke="#4B4C4E" stroke-width=".3" d="M576 151h5c.98-4.1-2.7-5.49 0-8-5.41.24.4 4.06-1 7-1.4-.91-3.27.9-4 1Z"/><path fill="none" fill-opacity="0" stroke="#757679" stroke-width=".3" d="M241 150c.27-.25 1 0 1 0h3v-1c-3.02.38-.33-3.13-3-4-1.09 1.52-.99 3.17-1 5Z"/><path fill="none" fill-opacity="0" stroke="#8C8D91" stroke-width=".3" d="M573 153c.13-.65.58-1.49 1-2 2.01-2.41 1.31-2.78 2-6-1.09.52-2.85-.4-4 0 0 2.64.92 6.07 1 8Z"/><path fill="none" fill-opacity="0" stroke="#6C6D70" stroke-width=".3" d="M680 156c2.69-.92 6.29.87 9 0-.26-.22-.65-.95-1-1-3-.43-6.39.87-9-1 1.05-2.32.95-4.61 0-7-.15-.51-.97-1.86-1-2 .01 2.37-.21 9.95 2 11Z"/><path fill="none" fill-opacity="0" stroke="#96979C" stroke-width=".3" d="M688 155v-7c-2.53-.71-7.01 1.32-9-1 .95 2.39 1.05 4.68 0 7 2.61 1.87 6 .57 9 1Z"/><path fill="none" fill-opacity="0" stroke="#434446" stroke-width=".3" d="M125 150c-1.03.1-3.02.31-4 0 2.42 4.11 4.89 4.9 0 8 5.82 1.17 8.52 7.33 15 6-3.21 2.96-7.72 5.16-12 6-.16 2.95 3.5 4.61 5 5 .57 3.05-3.37 2.62-4 5 3.88 2.52 9.66 3.67 11 8 2.2.74 9.01-.77 9-1 2.28-1.24.44-5.68-1-2v-36c-6.41-.62-12.96.41-19 1Z"/><path fill="none" fill-opacity="0" stroke="#56575A" stroke-width=".3" d="M241 153c.57 6.79-1 15.39-1 23 7.91-.72 23.15 4.26 20-9-4.48-.82-11.86-.48-13-6 1.71-.72 3.57-1.34 5-2-1.69-1.07-1.03-4.13-1-6h-9v-3s-.73-.25-1 0c-.01.98-.08 2.02 0 3Z"/><path fill="none" fill-opacity="0" stroke="#1C1C1D" stroke-width=".3" d="M251 153c.02-1 0-2 0-3h-9v3z"/><path fill="none" fill-opacity="0" stroke="#8C8D92" stroke-width=".3" d="M291 160c.31.24 1.54-.14 2 0 .82-1.84 0-5.96 0-8 .07.13-2.36.55-3-1 0 2.16-.96 7.49 1 9Z"/><path fill="none" fill-opacity="0" stroke="#6B6C70" stroke-width=".3" d="M212 169c7.5 0 15.55-.84 23 0 .11.01 2.18-1.91 3-1 .28 3.35-1.04 7.84 2 10-.08-.49 0-1.5 0-2 0-7.61 1.57-16.21 1-23-8.34 2.33-18.83.34-28 1-1.59 2.98 2.54 13.08-1 15Z"/><path fill="none" fill-opacity="0" stroke="#68696C" stroke-width=".3" d="M208 169h1c-.12-3.63.07-7.91 0-11-.04-1.59-.91-3.14-1-4-.45 4.52-1.5 10.66 0 15Z"/><path fill="none" fill-opacity="0" stroke="#444547" stroke-width=".3" d="M322 192c-.64 4.34.91 8.14 2 12 3.92-.49 8.74-.33 7 5h44c.66 3.56-2.28 11.55 4 10 .64-8.18-1.3-17.58 1-25 2.77 2.21-.72 7.72 2 10v-11c-4.05.65-8.64-.43-12-1h-6c-1.06-2.26 1.41-6.99 0-9h-11v-28c-3.68-1.68-3.32 7.02-7 3 0 0 .22-.62 0-1-2.52-.38-4.76.44-7 1 1.45-2.02-1.72-3.05-2-4h-3v28h-10c1.97 3.54-1.74 8.66-2 10Z"/><path fill="none" fill-opacity="0" stroke="#6B6C6F" stroke-width=".3" d="M346 158c3.68 4.02 3.32-4.68 7-3v28h11c-2.35-2.25-6.83-.39-10-1 .45-9.35-.16-19.03-1-28h-4c.25 2.65-.01 4.35-3 4Z"/><path fill="none" fill-opacity="0" stroke="#656566" stroke-width=".3" d="M149 177v-20c1.31.16 2.7-.21 4 0v-1c-8.82-2.25-4.37 17.18-4 21Z"/><path fill="none" fill-opacity="0" stroke="#777" stroke-width=".3" d="M92 164c1.95-.35 2.71-2.07 4-3-.13-1.03-1.17-1.59-2-2 .2 1.28-.59 4.46-2 5Z"/><path fill="none" fill-opacity="0" stroke="#444547" stroke-width=".3" d="M286 204c1.33.81 3.45.71 5 1 1.38-2.14 4.81-.48 7-1 1.67-4.18 1.77-8.72 3-13-3.96-.06-1.45-8.36-2-13s.41-12.1 0-17c-2.2.69-4.44-.53-6-1-.46-.14-1.69.24-2 0 5.76 8.18-10.38 2.4-11 10-.61 7.6 11.29 6.37 16 9-5.39 2.55-15.05 1.78-13.99 9.99S295.1 190.71 298 196c-3.96-.83-18.79 3.87-12 8Z"/><path fill="none" fill-opacity="0" stroke="#8D8E91" stroke-width=".3" d="M92 184c2.46-1.18 4.81-2.31 7-4-.81-2.1-3.92-3.23-3-6 2.5 2.06 3.76-2.11 4-4-3.48-.07-6.01-2.52-9-4 2.15 2.8 2.02 14.55 1 18Z"/><path fill="none" fill-opacity="0" stroke="#4C4D4F" stroke-width=".3" d="M235 169c3.14 1.52 4.74 14.78 6 19 .97 2.12 3.21 5.13 4 6 5.37-.64 17.99-.34 13-9 .43 2.29-3.26 5.26-4 7-1.82-2.58-.67-6.03-1-9h3c-2.96-1.84-15.58-2.36-16-5-3.04-2.16-1.72-6.65-2-10-.82-.91-2.89 1.01-3 1Z"/><path fill="none" fill-opacity="0" stroke="#55565A" stroke-width=".3" d="M366 178c-.58-.06 2.02-1 2-1 .2 0-5.45.64-2 1Z"/><path fill="none" fill-opacity="0" stroke="#7C7C7C" stroke-width=".3" d="M735 182c.42-2.79 1.74-3.09 1-5-2.16 1.79-1.38 3.24-1 5Z"/><path fill="none" fill-opacity="0" stroke="#C1C2C6" stroke-width=".3" d="M370 190h1c.26-.12.65-.93 1-1 .51-1.5.12-4.85-1-6 0 0-.65.23-1 0-3.24-2.09-3.28 9.12 0 7Z"/><path fill="none" fill-opacity="0" stroke="#68696C" stroke-width=".3" d="M258 185c-.6-1.05-.95-1.35-2-2h-3c.33 2.97-.82 6.42 1 9 .74-1.74 4.43-4.71 4-7Z"/><path fill="none" fill-opacity="0" stroke="#8F9094" stroke-width=".3" d="M372 189c2.26-.42 4.72.31 7 0v-6h-8c1.12 1.15 1.51 4.5 1 6Z"/><path fill="none" fill-opacity="0" stroke="#383939" stroke-width=".3" d="M79 188c.5.08 1.55.77 2 1 .25-.09.66-.99 1-1-.42-1.36-1.8-2.33-3-3-.4.6.5 2.5 0 3Z"/><path fill="none" fill-opacity="0" stroke="#323232" stroke-width=".3" d="M661 185c-2.29 3.34-.36 8.83-1 13 7.06.86 9.24-14.12 2-13 4.59 1.08 3.9 8.85 0 11-2.27-2.68-.38-7.5-1-11Z"/><path fill="none" fill-opacity="0" stroke="#616161" stroke-width=".3" d="M735 192c-.47-2.09 0-4.85 0-7-.58 2.66-1.13 4.19 0 7Z"/><path fill="none" fill-opacity="0" stroke="#96979B" stroke-width=".3" d="M76 202s.64.23 1 0c2.04-2.92 10.04-6.18 9-10-1.53-.99-3.18-2.07-5-3-.45-.23-1.5-.92-2-1h-3c.31 4.64-.42 9.37 0 14Z"/><path fill="none" fill-opacity="0" stroke="#292929" stroke-width=".3" d="M245 207c-1.63-.02-2.51-1.26-4 0-.42-5.29 3.36-7.63-2-11 .83-1.75 3.44-.66 5-1 .34 0 .8-.98 1-1-.79-.87-3.03-3.88-4-6 3.66 3.14 1.04 6.56-3 7 .9 4.73 4.46 10.82-1 14 2.8.13 5.75-1.48 8-2Z"/><path fill="none" fill-opacity="0" stroke="#444547" stroke-width=".3" d="M145 201c-1.84-1.79-1.62-9.59-1-12-4.33.74-7.69 4.26-12 5 2.3 2.74 8.71 6.12 13 7Z"/><path fill="none" fill-opacity="0" stroke="#67686B" stroke-width=".3" d="M371 190c2.11 0 6.76.85 8-1-2.28.31-4.74-.42-7 0-.35.07-.74.88-1 1Z"/><path fill="none" fill-opacity="0" stroke="#626366" stroke-width=".3" d="M77 202c4.35-1.66 8.35-4.42 13-5 1.22-3.91-1.79-3.58-4-5 1.04 3.82-6.96 7.08-9 10Z"/><path fill="none" fill-opacity="0" stroke="#3C3C3C" stroke-width=".3" d="M390 194c-2.19 1.7-.44 5.48-1 8 2.19-1.7.44-5.48 1-8Z"/><path fill="none" fill-opacity="0" stroke="#4A4A4C" stroke-width=".3" d="M245 207c4.37.31 7.91-2.37 12-3 1.52-6.7-12.22-4.33-13-9-1.56.34-4.17-.75-5 1 5.36 3.37 1.58 5.71 2 11 1.49-1.26 2.37-.02 4 0Z"/><path fill="none" fill-opacity="0" stroke="#262626" stroke-width=".3" d="M227 209c2.73-3.86-7.52-15.2-13.75-9.75s-7.95 13.73-17.24 13.76c-9.29.02-20.13 1.21-29.01 1.99 10.07-1.2 24.98 1.9 34.32-.68S207.21 200.24 218 198c1.75 4.64 10.44 5.88 6 11 5.99 1.04 9.97 3.17 10 10 1.08-5.12-.58-11.34-7-10Z"/><path fill="none" fill-opacity="0" stroke="#292829" stroke-width=".3" d="M291 205c-1.55-.29-3.67-.19-5-1 4.26 3.57 10.93 2.77 16 5-2.44 2.18-7.07.19-10 2-.2 10.32 10.03 14.21 17.98 8.98 7.94-5.24 16.84 1.08 24.02.02-12.57-8.85-24.49.66-38 0-.55-1.84-3.53-10.2 1-9s8.95-2.46 5-4-7.05-1.26-11-2Z"/><path fill="none" fill-opacity="0" stroke="#313132" stroke-width=".3" d="M240 219c11.13 1.63 8.97-13.97-2-9 2.45 2.39 2.11 5.74 2 9Z"/><path fill="none" fill-opacity="0" stroke="#2D2C2C" stroke-width=".3" d="M516 219c-5.21 5.69-19.03-2.84-22 6 3.19 3.82 8.25 8.37 14 6-2.54-1.27-5.66-1.87-8-3 2.21-2.77 7.72.72 10-2-4.76-.26-10.02 1.04-14-2 4.82-5.67 16.74 2.27 20-5Z"/><path fill="none" fill-opacity="0" stroke="#333132" stroke-width=".3" d="M389 220c-2.28 3.01-.37 8.17-1 12 7.1-.57 16.09.76 23 0s16.48 2.79 20-3c-12.7 4.55-28.2.75-42 2z"/><path fill="none" fill-opacity="0" stroke="#A4A3A2" stroke-width=".3" d="M806 224c-.61-1.75-2.48-2.68-3-4 .46 1.56 2.43 2.71 3 4Z"/><path fill="none" fill-opacity="0" stroke="#2A292A" stroke-width=".3" d="M456 225c-5.19 1.36-11.1 1.75-16 3 4.88 3.57 10.66-1.63 16-1 2.03 7.72 13.05 3.36 18.78.78s15.11 2.27 20.22 1.22c-5.62-3.43-14.58-4.64-20.78-2.78-6.2 1.87-15.5 6.5-18.22-1.22Z"/><path fill="#F5F5F5" stroke="None" d="M0 241h820V0H0v241M399 43c-3.32 22.26 16.37 41.97 13 64-2.61-5.93-7.48-8.14-14-6 1.05-8.39 4.34-15.55 1-24-7.9 9-13.6 1.26-11-9-8.74 1.46-5.61-9.24-.25-12.25 5.37-3 5.79-11.79 11.25-12.75m-17 3c-12.86 12.62-17.64 33.12-36 40 .23-2.51 3.01-4.05 2-7-10.62 3.98-16.27 17-27 20 2.32-8.92 12.79-12.41 17.75-20.25 4.96-7.83 14.96-9.32 21-17C365.8 54.07 374.82 51.51 382 46m67 58c-18.83-10.97-33.5-32.11-41-52 5.69 8.89 16.62 14.71 21.75 24.25C434.88 85.78 447.4 92.23 449 104m-199-4c-.05 1.74-.39 1.72-2 2 .37.18.91 1.63 1 2 .37 1.45 0 3.5 0 5v3c5.57 2.44 3.74 5.59 1 10-.22.36 0 1 0 1-.36 1.58.27 3.4 0 5 6.58-1.07 14.19-2.62 19-7-.03-.5 0-1 0-1 .01-1.31.62-1.82 1-3 1.17-3.59 3.25-6.12 6-9 1.93.66 2.67 3.39 5 3 .3-1.25 1.83-1.71 2-3 3.03.41 5.26 3.74 7 6 5.99 3.14 10.16-7.17 15.25-1.24 5.08 5.92 8.9-4.12 13.83-3.68s10.18 4.49 14.62-1.38c4.43-5.88 9.83-6.35 16.3-6.7-2.28 8.12 3.35 10.79 9 6-1.26 17.3 24.74 10.99 23-2 2.2-2.2 10.74-1.29 14-1 1.65 1.09.95 4.16 1 6 4.13 5.59 13.82-5.53 17-1 .2-1.64-.15-3.35 0-5 4.59 1.14 12.81-2.41 15 2 3.67 2.07 7.5 8.15 12.07 5.07 4.58-3.08 12.95 1.6 16.93-1.07.02-.53 1.53-1.98 0-3 7.12-1.9 6.07-9.34 14.03-10.97 7.95-1.64 9.21 8.92 15.97 9.97-.41 3.18 1.69 5.72 1 9 .25 1.68.72 2.6 0 5-.14.46 0 1 0 1 7.47-.14 16.69-.28 24 0s15.65-2.54 20 4c3.34 5.02 2.42 16.03 3 22 1.58 1.09 5.23-.82 7 0 .59-2.84-1.22-6.98 1-9 .86-3.51.39-4.86 3-7 3.77-3.1 15.64-3.33 20-1 1.62.87 1.91 4.26 5 4v11c1.15-.4 2.91.52 4 0 .8-3.72 1.48-8.6 1-13 2.76-.84 8.57 1.96 9-2 2.75-.98 4.3-.96 7 0 4.73 1.68 19.13-.29 16 10 2.19.53 5.08 1.7 4 5h11c-.44-3.61.33-7.37 0-11h24v6c.01-.06 1 0 1 0 1.26 0 4.98.66 6 0 .88-.92.65-1.91 1-3 .81-2.55 1.91-5.51 0-8 6.94-5.62 16.26-6.85 23 0-2.4 5.27.22 10.6-1 16 .03.14.85 1.49 1 2 1.99 2.32 6.47.29 9 1v7c.35.05.74.78 1 1 3.73 3.22 3.76 6.25 1 10 3.26 5.96 11.32 7.27 14 13 5.33-.56 14.28-.73 14-8h14c.25 2.36 1.69 5 4 6 .74 1.91-.58 2.21-1 5 .19.89 0 2.09 0 3 0 2.15-.47 4.91 0 7 .59 1.49 1.34 3.46 3 4 2.09-2.06.23-4.23-1-6 4.95 2.1 8.55-4.6 8.92-8.08.38-3.48 5.65-5.83.08-8.92 3.12-1.83 4.82-5.52 5-9 8.36-2.52 11.31 3.07 16 8-.78 2.21-2.94 3.81-2 7 4.59.68 2.36 12.97 11 12-4.55 2.94 1.57 8.02 2 12 5.18-9.11 20.58-.73 17 6 5.63.47 9.62 5.04 8 11 .52 1.32 2.39 2.25 3 4 1.55 4.43 2.41 8.01 4 12H10v-14c7.03.05 13.13-3.36 20-4 2-4.41 8.35-7.82 14-9-.74-4.28 1.33-7.8 1-12 2.03-1.71 4.96-.31 7-2-1.69-4.17-3.72-12.13 3.22-12.78 6.95-.64 5.26 8.38 4.78 12.78 8.69-1.66 4.67 11.39 12 11-.37-2.47 2.38-3.1 4-4-.42-4.63.31-9.36 0-14h3c.5-.5-.4-2.4 0-3 1.2.67 2.58 1.64 3 3 3.27-.06 5.44-1.49 8-1-.11-1.7-.38-4.84 2-3 1.02-3.45 1.15-15.2-1-18-1.76-.87-5.48-.86-5-4 1.74 1.48 3.58 2.46 6 2 1.41-.54 2.2-3.72 2-5 .83.41 1.87.97 2 2 1.76-1.27 3.98-2.44 6-3-.67-1.81-5-2.98-2-5 4.25-1.59 7-10.7 11-15 .41-1.88-.53-4.15 0-6 .65-2.27 1.33-2.34 2 0 .79.93-.25 4.73 0 6 3 2.83 5.61 8.69 8 12 .98.31 2.97.1 4 0 7.29-2.35-2.27-16.47 1-21s16.64-.76 22-2v21c5.95-1.93 5.21 4.03 5 8v1c2.15 2.7 1.81-1.67 2-3 1.03-7.19-.77-14.78 0-22h6c.61-3.86 1.3-7.24 0-11 6.25-6.68 15.49-5.91 22 0-2.59 4.69.26 10.45-1 15 1.88.01 3.87.03 5 0 2.14-3.15-.84-11.8-1-15 6.76-5.18 15.48-7.26 22 0-2.26 8.38.44 18.11-1 26 2.05 3.64 14.02-3.58 18.02-4.98 4.01-1.39 15.56-5.62 17.98-10.02.37-2.33 1.58-6.72 1-9-1.02-4.02-7.77-6.97-1-11 .92-2.25-1.47-8.68 2-10-1.18-.16-1.93-.45-3-1 .67-1.2 1.64-2.58 3-3 .67-1.8-1.2-4.98 1-6 1.21 2.47 1.42 5.87 4 8Z"/><path fill="#C7C8CC" stroke="None" d="M399 43c-5.46.96-5.88 9.75-11.25 12.75-5.36 3.01-8.49 13.71.25 12.25-2.6 10.26 3.1 18 11 9 3.34 8.45.05 15.61-1 24 6.52-2.14 11.39.07 14 6 3.37-22.03-16.32-41.74-13-64Z"/><path fill="#C9CACD" stroke="None" d="M382 46c-7.18 5.51-16.2 8.07-22.25 15.75-6.04 7.68-16.04 9.17-21 17C333.79 86.59 323.32 90.08 321 99c10.73-3 16.38-16.02 27-20 1.01 2.95-1.77 4.49-2 7 18.36-6.88 23.14-27.38 36-40Z"/><path fill="#CACBCD" stroke="None" d="M449 104c-1.6-11.77-14.12-18.22-19.25-27.75C424.62 66.71 413.69 60.89 408 52c7.5 19.89 22.17 41.03 41 52Z"/><path fill="#8E8E8E" stroke="None" d="M245 98c.93-.14 4.88.79 5 2-2.58-2.13-2.79-5.53-4-8-2.2 1.02-.33 4.2-1 6Z"/><path fill="#6C6D71" stroke="None" d="M458 110c-.1 2.49.03 5.38 0 8-.03 2.52-.35 6.7.2 9.25s-1.26 7.72-1.2 6.75c5.55 22.41 6.48 46.05 6 70 3.12.82 6.83-.61 10 0-1.58-5.01 3.86-4.02 7-4-.19-24.91.32-49.68 0-74 3.85.19 4.53-8.29 9-5 0 0-.14-.54 0-1-.62-1.54.01-3.07 0-5 .69-3.28-1.41-5.82-1-9-6.76-1.05-8.02-11.61-15.97-9.97-7.96 1.63-6.91 9.07-14.03 10.97 1.53 1.02.02 2.47 0 3Z"/><path fill="#282828" stroke="None" d="M245 102c.82.11 2.18.14 3 0 1.61-.28 1.95-.26 2-2-.12-1.21-4.07-2.14-5-2-1.36.42-2.33 1.8-3 3 1.07.55 1.82.84 3 1Z"/><path fill="#CFD0D3" stroke="None" d="M290 114c1.95 5.29-.67 12.24 0 18s0 13.1 0 19c.64 1.55 3.07 1.13 3 1 0-11.47-3.37-26 6-34 2.67 3.27 5.33 3.04 8 0 9.8 5.79 7.25 16.64 7 27s.95 23.47 0 34c.48.78.92 1.91 2 2 2.86-16.98-6.4-38.72 6-52 3.95 4.06 5.95-.03 10 1 4.33-.08 8.67.06 13 0 .62 8.92-1.27 18.52 1 27 .22.38 0 1 0 1 2.99.35 3.25-1.35 3-4h4c-.4-4.23-1.27-11.74.33-15.67s11.58 1.76 14.67-.33v38c9.94-.52-.41-17.75 4.78-23.22S370.2 132.64 380 132c-.14.08 2.12-2.26 2-2 .78-8.26-.58-16.72 0-25 1.74 12.99-24.26 19.3-23 2-5.65 4.79-11.28 2.12-9-6-6.47.35-11.87.82-16.3 6.7-4.44 5.87-9.69 1.82-14.62 1.38s-8.75 9.6-13.83 3.68c-5.09-5.93-9.26 4.38-15.25 1.24Z"/><path fill="#7C7D7D" stroke="None" d="M243 112c.67-.4 1.34-.65 2-1 1.11-.59 2.67-1.54 4 0v-2c-1.63-.23-3.36.18-5 0-1.14-3.43 1.39-7.97 5-5-.09-.37-.63-1.82-1-2-.82.14-2.18.11-3 0-3.47 1.32-1.08 7.75-2 10Z"/><path fill="#1C1C1C" stroke="None" d="M249 109c0-1.5.37-3.55 0-5-3.61-2.97-6.14 1.57-5 5 1.64.18 3.37-.23 5 0Z"/><path fill="#585858" stroke="None" d="M382 105c4.64-.31 9.37.42 14 0v-1c-3.26-.29-11.8-1.2-14 1Z"/><path fill="#909191" stroke="None" d="M396 105c0 8.21-.77 16.83 0 25 .19.41 1.88.74 2 1-.63-6.75-.8-13.92-1-21-.05-1.84.65-4.91-1-6z"/><path fill="#585859" stroke="None" d="M414 109c-.71 5.9.84 12.12 0 18-1.02 7.16-3.32 14.98-2 23-1.88.47-4.93-1.06-6 1 2.33-.05 4.67.04 7 0-1-15.87 3.54-29.95 2-46h13c1.25 8.36-2.55 19.23 2 26-.22-1.34-.84-2.48-1-4-.6-5.65 2.43-15.97 0-21-2.19-4.41-10.41-.86-15-2-.15 1.65.2 3.36 0 5Z"/><path fill="#010101" stroke="None" d="M382 130c-.61 6.54-.7 14.94-2 21-1.76 8.21-.76 18.07-1 27-3.56-.62-7.16-1.39-11-1 .02 0-2.58.94-2 1 0 .62 3.54 3.58 4 5 .35.23 1 0 1 0h8v6c-1.24 1.85-5.89 1-8 1h-1c-.23.16-.23 1.65 0 2 3.36.57 7.95 1.65 12 1v11c-2.72-2.28.77-7.79-2-10-2.3 7.42-.36 16.82-1 25-6.28 1.55-3.34-6.44-4-10h-44c1.74-5.33-3.08-5.49-7-5-1.09-3.86-2.64-7.66-2-12-1.18-3.93-6.77-8.44-9-13-.2-.4 0-1 0-1-.27-.95-1.36-3.4-3-3-1.86 6.18-8.7 9.73-9 16-1.23 4.28-1.33 8.82-3 13-2.19.52-5.62-1.14-7 1 3.95.74 7.05.46 11 2s-.47 5.2-5 4-1.55 7.16-1 9c13.51.66 25.43-8.85 38 0-7.18 1.06-16.08-5.26-24.02-.02-7.95 5.23-18.18 1.34-17.98-8.98 2.93-1.81 7.56.18 10-2-5.07-2.23-11.74-1.43-16-5-6.79-4.13 8.04-8.83 12-8-2.9-5.29-14.93 1.2-15.99-7.01s8.6-7.44 13.99-9.99c-4.71-2.63-16.61-1.4-16-9 .62-7.6 16.76-1.82 11-10-5.62-4.79-15.55-5.42-18.26-13.74-2.7-8.32 2.79-19.41-.74-28.26-.1-.95-2.96 1.89-3 2 0 0-.03.5 0 1 .37 5.57-1.47 11.11-1 17 .92 11.56-5.84 16.3-16 21-1.43.66-3.29 1.28-5 2 1.14 5.52 8.52 5.18 13 6 3.15 13.26-12.09 8.28-20 9 0 .5-.08 1.51 0 2 .42 2.64 13.04 3.16 16 5 1.05.65 1.4.95 2 2 4.99 8.66-7.63 8.36-13 9-.2.02-.66 1-1 1 .78 4.67 14.52 2.3 13 9-4.09.63-7.63 3.31-12 3-2.25.52-5.2 2.13-8 2 5.46-3.18 1.9-9.27 1-14 4.04-.44 6.66-3.86 3-7-1.26-4.22-2.86-17.48-6-19-7.45-.84-15.5 0-23 0h-4c-.99-.12-2.01.09-3 0 3.71 9.62-13.98 24.4-1 26-7.84 2.57 1.87 14.51-8 13v-72h-9c-1.13.03-3.12.01-5 0-2-.01-4 .01-6 0v71c-5.91-3.72-2.2-14.96-3-23s.6-18.72 0-27c-5.41 1.37-6.5-2.77-10-5-1.13.57-1.12 2.52-3 2-1.63.23-3.36-.18-5 0-.19 1.33.15 5.7-2 3-1.3-.21-2.69.16-4 0v20c0 8.26.8 17.18-1 25-.94-.57-1.82-1.15-3-1-4.29-.88-10.7-4.26-13-7 4.31-.74 7.67-4.26 12-5 .03-.12.85-1.57 1-2 .01.23-6.8 1.74-9 1-1.34-4.33-7.12-5.48-11-8 .63-2.38 4.57-1.95 4-5-1.5-.39-5.16-2.05-5-5 4.28-.84 8.79-3.04 12-6-6.48 1.33-9.18-4.83-15-6 4.89-3.1 2.42-3.89 0-8-2.39-3.31-5-9.17-8-12-.26-.25-1.66-.23-2 0-4 4.3-6.75 13.41-11 15-3 2.02 1.33 3.19 2 5-2.02.56-4.24 1.73-6 3-1.29.93-2.05 2.65-4 3-2.42.46-4.26-.52-6-2-.48 3.14 3.24 3.13 5 4 2.99 1.48 5.52 3.93 9 4-.24 1.89-1.5 6.06-4 4-.92 2.77 2.19 3.9 3 6-2.19 1.69-4.54 2.82-7 4-2.38-1.84-2.11 1.3-2 3-2.56-.49-4.73.94-8 1-.34.01-.75.91-1 1 1.82.93 3.47 2.01 5 3 2.21 1.42 5.22 1.09 4 5-4.65.58-8.65 3.34-13 5-.36.23-1 0-1 0-1.62.9-4.37 1.53-4 4-7.33.39-3.31-12.66-12-11 .48-4.4 2.17-13.42-4.78-12.78-6.94.65-4.91 8.61-3.22 12.78-2.04 1.69-4.97.29-7 2 .33 4.2-1.74 7.72-1 12-5.65 1.18-12 4.59-14 9-6.87.64-12.97 4.05-20 4v14h800c-1.59-3.99-2.45-7.57-4-12-.57-1.29-2.54-2.44-3-4 1.62-5.96-2.37-10.53-8-11 3.58-6.73-11.82-15.11-17-6-.43-3.98-6.55-9.06-2-12-8.64.97-6.41-11.32-11-12-.94-3.19 1.22-4.79 2-7-4.69-4.93-7.64-10.52-16-8-.18 3.48-1.88 7.17-5 9 5.57 3.09.3 5.44-.08 8.92-.37 3.48-3.97 10.18-8.92 8.08 1.23 1.77 3.09 3.94 1 6-1.66-.54-2.41-2.51-3-4-1.13-2.81-.58-4.34 0-7 0-.91.19-2.11 0-3-.38-1.76-1.16-3.21 1-5-2.31-1-3.75-3.64-4-6h-14c.28 7.27-8.67 7.44-14 8-2.68-5.73-10.74-7.04-14-13 2.76-3.75 2.73-6.78-1-10-2.71.87-6.31-.92-9 0-2.61.89-5.21 5.62-2 8-4.27.49-7.06 3.2-6 8-3.72 2.49-9.76 3.51-7 9-1.2-2.72-3.16-1.48-5 0-2.01-3.18 1.13-10.82-5-10-1.03-.56-2.9.43-4 0-1.31-4.62 1.48-6.66 3-10h-4c-3.34-2.17-6.4-5.49-8-9-2.22 4.28-6.67 9.58-12 10 1.99 2.26 4.07 4.63 3 9h-4c-3.13 1.1-7.21 1.25-11 1 .84-3.93-.36-7.33-5-6 3.94-5.49-6.58-7.1-3-15-5.93 1.63-10.06-2-6-7-1.28-.28-3.5.76-4-1-3.99-2.42-6.8-5.23-9-9-1.91 3.97-5.47 8.29-10 9-2.7 2.51.98 3.9 0 8h-5c-.49-.08-1.51-.07-2 0-.42.51-.87 1.35-1 2-.85 4.11-.4 9.88-7 8 2.77 1.79 5.97 4.96 0 5-1.53 6.25-2.04 19.88-12 15 .57 2.78 4.48 1.19 5 4-5.78-3.35-10.35-1.83-16 0-1.15.46-2.81-.35-4 0 .46 2.28-.11 4.76-3 4-.5-.01-1 0-1 0h-9c3.74-5.49-4.89-3.82-8-4 1.19-4.43-6.1-1.77-4-7-.91 2.76-2.06 5.07-6 4-.8 3.85-1.31 7.85-1 12-7.76-1.73-.39-15.08-1.02-20.02-.64-4.95-.51-10.59-4.98-14.98-3.13-.06-3.19 4.51-7 3 2.49 7.12-.02 9.11 1.78 17.22 1.79 8.12-.88 18.44.22 26.78-4.44 1.46-4.28-2.93-4-6h-12c-3.14-.02-8.58-1.01-7 4-3.17-.61-6.88.82-10 0-3.29-.86-2.26-.34-2-4-7.17.1-12.92.53-20 0-1.15 7.75 2.41 17.95-2 24-3.61-9.21-2.61-20.6-3-31 4.03-1.06 12.05 2.64 13-3-4.56-1.12-13.99 3.07-13.99-4.01s9.46-2.83 13.99-3.99c-1.67-4 2.87-3.11 3-6-5.21-.54-18.9 6.57-20.97-1.03-2.07-7.59 2.29-17.65-1.03-24.97-.58-6.21 1.01-12.85 0-19-4.55-6.77-.75-17.64-2-26h-13c1.54 16.05-3 30.13-2 46-2.33.04-4.67-.05-7 0-2.61.05-5.4.24-8 0-2.66-2.55-1.63-17.03-2-21-.77-8.17 0-16.79 0-25-4.63.42-9.36-.31-14 0-.58 8.28.78 16.74 0 25m279 55c.62 3.5-1.27 8.32 1 11 3.9-2.15 4.59-9.92 0-11 7.24-1.12 5.06 13.86-2 13 .64-4.17-1.29-9.66 1-13m-271 9c-.56 2.52 1.19 6.3-1 8 .56-2.52-1.19-6.3 1-8m-163 15c6.42-1.34 8.08 4.88 7 10-.03-6.83-4.01-8.96-10-10 4.44-5.12-4.25-6.36-6-11-10.79 2.24-7.34 13.74-16.68 16.32s-24.25-.52-34.32.68c8.88-.78 19.72-1.97 29.01-1.99 9.29-.03 11.01-8.31 17.24-13.76s16.48 5.89 13.75 9.75m13 10c.11-3.26.45-6.61-2-9 10.97-4.97 13.13 10.63 2 9m276 0c-3.26 7.27-15.18-.67-20 5 3.98 3.04 9.24 1.74 14 2-2.28 2.72-7.79-.77-10 2 2.34 1.13 5.46 1.73 8 3-5.75 2.37-10.81-2.18-14-6 2.97-8.84 16.79-.31 22-6m-127 1v11c13.8-1.25 29.3 2.55 42-2-3.52 5.79-13.09 2.24-20 3s-15.9-.57-23 0c.63-3.83-1.28-8.99 1-12m67 5c2.72 7.72 12.02 3.09 18.22 1.22 6.2-1.86 15.16-.65 20.78 2.78-5.11 1.05-14.49-3.8-20.22-1.22s-16.75 6.94-18.78-.78c-5.34-.63-11.12 4.57-16 1 4.9-1.25 10.81-1.64 16-3Z"/><path fill="#CFD0D3" stroke="None" d="M429 127c4.3.45 9.12-1.04 13 1 1.85-3.87 3.71-5.47 8-6 2.63-.33 5.36.24 8 0v-4c.03-2.62-.1-5.51 0-8-3.98 2.67-12.35-2.01-16.93 1.07-4.57 3.08-8.4-3-12.07-5.07 2.43 5.03-.6 15.35 0 21Z"/><path fill="#66676B" stroke="None" d="M270 117c.96-.32 1.67.18 2 1 3.53 8.85-1.96 19.94.74 28.26 2.71 8.32 12.64 8.95 18.26 13.74-1.96-1.51-1-6.84-1-9 0-5.9.67-13.24 0-19s1.95-12.71 0-18c-1.95-5.28-6.57-2.77-9-3-2.33.39-3.07-2.34-5-3-2.75 2.88-4.83 5.41-6 9Z"/><path fill="#868789" stroke="None" d="M281 111c2.43.23 7.05-2.28 9 3-1.74-2.26-3.97-5.59-7-6-.17 1.29-1.7 1.75-2 3Z"/><path fill="#D0D1D4" stroke="None" d="M397 110c.2 7.08.37 14.25 1 21 .58 6.21 0 12.76 0 19 2.65-.24 5.35.18 8 0v-23h8c.84-5.88-.71-12.1 0-18-3.18-4.53-12.87 6.59-17 1Z"/><path fill="#545454" stroke="None" d="M245 111c1.77-.36 2.49.66 4 1v-1c-1.33-1.54-2.89-.59-4 0Z"/><path fill="#1B1B1B" stroke="None" d="M243 112c-6.77 4.03-.02 6.98 1 11 2 .56 4.3-.13 6-1 2.74-4.41 4.57-7.56-1-10-1.51-.34-2.23-1.36-4-1-.66.35-1.33.6-2 1Z"/><path fill="#9D9EA0" stroke="None" d="M489 120c.72-2.4.25-3.32 0-5 .01 1.93-.62 3.46 0 5Z"/><path fill="#444547" stroke="None" d="M161 132c-1.17 7.33.46 14.14-1 22 1.88.52 1.87-1.43 3-2 3.5 2.23 4.59 6.37 10 5 .6 8.28-.8 18.96 0 27s-2.91 19.28 3 23v-71c2 .01 4-.01 6 0 1.26-4.55-1.59-10.31 1-15-6.51-5.91-15.75-6.68-22 0 1.3 3.76.61 7.14 0 11ZM187 136h9v72c9.87 1.51.16-10.43 8-13-12.98-1.6 4.71-16.38 1-26 .99.09 2.01-.12 3 0-1.5-4.34-.45-10.48 0-15 .3-2.95-.69-4.06-1-7 1.44-7.89-1.26-17.62 1-26-6.52-7.26-15.24-5.18-22 0 .16 3.2 3.14 11.85 1 15Z"/><path fill="#393A3C" stroke="None" d="M269 120c.04-.11 2.9-2.95 3-2-.33-.82-1.04-1.32-2-1-.38 1.18-.99 1.69-1 3Z"/><path fill="#6B6C70" stroke="None" d="M293 152c0 2.04.82 6.16 0 8 1.56.47 3.8 1.69 6 1 .41 4.9-.55 12.36 0 17s-1.96 12.94 2 13c.3-6.27 7.14-9.82 9-16 1.64-.4 2.73 2.05 3 3 0-10.45.19-22.74 0-33s2.66-20.23-6-27c-2.67 3.04-5.33 3.27-8 0-9.37 8-6 22.53-6 34Z"/><path fill="#989A9E" stroke="None" d="M313 178s-.2.6 0 1c.25.25 1 0 1 0 .95-10.53-.25-23.64 0-34s2.8-21.21-7-27c8.66 6.77 5.81 16.74 6 27s0 22.55 0 33Z"/><path fill="#8E8F93" stroke="None" d="M450 122c4.77.89 6.12 8.43 7 12-.06.97 1.75-4.2 1.2-6.75s-.23-6.73-.2-9.25v4c-2.64.24-5.37-.33-8 0Z"/><path fill="#444547" stroke="None" d="M480 200h12c-.28 3.07-.44 7.46 4 6-1.1-8.34 1.57-18.66-.22-26.78-1.8-8.11.71-10.1-1.78-17.22 3.81 1.51 3.87-3.06 7-3 4.47 4.39 4.34 10.03 4.98 14.98.63 4.94-6.74 18.29 1.02 20.02-.31-4.15.2-8.15 1-12 3.94 1.07 5.09-1.24 6-4-2.1 5.23 5.19 2.57 4 7 3.11.18 11.74-1.49 8 4h9c-.93-10.24 1.75-23.06 0-33s2.08-21.98-2-31c-4.35-6.54-12.69-3.72-20-4s-16.53-.14-24 0c-4.47-3.29-5.15 5.19-9 5 .32 24.32-.19 49.09 0 74Z"/><path fill="#CFD0D2" stroke="None" d="M250 123c-1.84 2.35-.47 12.11 1 15h17c-.47-5.89 1.37-11.43 1-17-4.81 4.38-12.42 5.93-19 7 .27-1.6-.36-3.42 0-5Z"/><path fill="#949599" stroke="None" d="M244 123c.58 2.28-.63 6.67-1 9-.65 4.09-1.59 8.55-1 13h-19c2.43 7.95-3.49 9.09-10 8-1.59 1.91-.05 6.03-4 5 .07 3.09-.12 7.37 0 11h3c3.54-1.92-.59-12.02 1-15 9.17-.66 19.66 1.33 28-1-.08-.98-.01-2.02 0-3 .01-1.83-.09-3.48 1-5 2.67.87-.02 4.38 3 4v-11h5c.47.11 1 0 1 0-1.47-2.89-2.84-12.65-1-15 0 0-.22-.64 0-1-1.7.87-4 1.56-6 1Z"/><path fill="#444547" stroke="None" d="M442 128c-7.1 14.84-4.85 32.8-7 49-7.94-3.91 1.33-20.61-5-27 3.32 7.32-1.04 17.38 1.03 24.97 2.07 7.6 15.76.49 20.97 1.03-.13 2.89-4.67 2-3 6-4.53 1.16-13.99-3.09-13.99 3.99s9.43 2.89 13.99 4.01c-.95 5.64-8.97 1.94-13 3 .39 10.4-.61 21.79 3 31 4.41-6.05.85-16.25 2-24 7.08.53 12.83.1 20 0-.26 3.66-1.29 3.14 2 4 .48-23.95-.45-47.59-6-70-.88-3.57-2.23-11.11-7-12-4.29.53-6.15 2.13-8 6Z"/><path fill="#454648" stroke="None" d="M656 137c-.34 2.73-.11 8.27-.79 11.23-.67 2.96 1.25 8.74.58 11-.68 2.26 1.31 11-.79 11.77 6.13-.82 2.99 6.82 5 10 1.84-1.48 3.8-2.72 5 0-2.76-5.49 3.28-6.51 7-9-1.06-4.8 1.73-7.51 6-8-3.21-2.38-.61-7.11 2-8-2.21-1.05-1.99-8.63-2-11 1.22-5.4-1.4-10.73 1-16-6.74-6.85-16.06-5.62-23 0 1.91 2.49.81 5.45 0 8Z"/><path fill="#68696C" stroke="None" d="M535 189s.5-.01 1 0c1.19-13.2 1.28-28.81 0-42-.58-5.97.34-16.98-3-22 4.08 9.02.25 21.06 2 31s-.93 22.76 0 33Z"/><path fill="#949599" stroke="None" d="M125 150c6.04-.59 12.59-1.62 19-1v36c1.44-3.68 3.28.76 1 2-.15.43-.97 1.88-1 2-.62 2.41-.84 10.21 1 12 1.18-.15 2.06.43 3 1 1.8-7.82 1-16.74 1-25-.37-3.82-4.82-23.25 4-21 .21-3.97.95-9.93-5-8v-21c-5.36 1.24-18.73-2.53-22 2s6.29 18.65-1 21Z"/><path fill="#96979C" stroke="None" d="M398 150v1c2.6.24 5.39.05 8 0 1.07-2.06 4.12-.53 6-1-1.32-8.02.98-15.84 2-23h-8v23c-2.65.18-5.35-.24-8 0Z"/><path fill="#919297" stroke="None" d="M430 131c1.01 6.15-.58 12.79 0 19 6.33 6.39-2.94 23.09 5 27 2.15-16.2-.1-34.16 7-49-3.88-2.04-8.7-.55-13-1 .16 1.52.78 2.66 1 4Z"/><path fill="#6C6D71" stroke="None" d="M314 179s-.75.25-1 0c2.23 4.56 7.82 9.07 9 13 .26-1.34 3.97-6.46 2-10h10v-28h3c-2.07-7.1 3.96-19.8-5-24-4.05-1.03-6.05 3.06-10-1-12.4 13.28-3.14 35.02-6 52-1.08-.09-1.52-1.22-2-2Z"/><path fill="#8B8B8C" stroke="None" d="M547 131c3.47-2.01 16.08-2.38 20-1-4.36-2.33-16.23-2.1-20 1Z"/><path fill="#AEAFB0" stroke="None" d="M586 130c1.79-.37 5.21-.37 7 0-2.7-.96-4.25-.98-7 0Z"/><path fill="#A5A5A5" stroke="None" d="M111 132c.21-.25 1.79-.25 2 0-.67-2.34-1.35-2.27-2 0Z"/><path fill="#95969B" stroke="None" d="M337 154c.28.95 3.45 1.98 2 4 2.24-.56 4.48-1.38 7-1-2.27-8.48-.38-18.08-1-27-4.33.06-8.67-.08-13 0 8.96 4.2 2.93 16.9 5 24Z"/><path fill="#545455" stroke="None" d="M380 132c-1.77 5.46.56 13.25 0 19 1.3-6.06 1.39-14.46 2-21 .12-.26-2.14 2.08-2 2Z"/><path fill="#353637" stroke="None" d="M398 151v-1c0-6.24.58-12.79 0-19-.12-.26-1.81-.59-2-1 .37 3.97-.66 18.45 2 21Z"/><path fill="#444547" stroke="None" d="M547 131c-2.61 2.14-2.14 3.49-3 7-1.86 15.35-.62 31.3-1 47 5.65-1.83 10.22-3.35 16 0-.52-2.81-4.43-1.22-5-4 9.96 4.88 10.47-8.75 12-15 5.97-.04 2.77-3.21 0-5 6.6 1.88 6.15-3.89 7-8-.08-1.93-1-5.36-1-8v-11c-3.09.26-3.38-3.13-5-4-3.92-1.38-16.53-1.01-20 1Z"/><path fill="#6C6D71" stroke="None" d="M576 145c-.69 3.22.01 3.59-2 6 .49-.07 1.51-.08 2 0 .73-.1 2.6-1.91 4-1 1.4-2.94-4.41-6.76 1-7 4.53-.71 8.09-5.03 10-9 2.2 3.77 5.01 6.58 9 9 1.89-.19.14-2.24 0-3h9c3.13-10.29-11.27-8.32-16-10-1.79-.37-5.21-.37-7 0-.43 3.96-6.24 1.16-9 2 .48 4.4-.2 9.28-1 13Z"/><path fill="#545454" stroke="None" d="M111 138c.34-.23 1.74-.25 2 0-.25-1.27.79-5.07 0-6-.21-.25-1.79-.25-2 0-.53 1.85.41 4.12 0 6Z"/><path fill="#96979B" stroke="None" d="M155 154c1.64-.18 3.37.23 5 0 1.46-7.86-.17-14.67 1-22h-6c-.77 7.22 1.03 14.81 0 22Z"/><path fill="#D0D1D4" stroke="None" d="M207 147c.31 2.94 1.3 4.05 1 7 .09.86.96 2.41 1 4 3.95 1.03 2.41-3.09 4-5 6.51 1.09 12.43-.05 10-8h19c-.59-4.45.35-8.91 1-13-2.42 4.4-13.97 8.63-17.98 10.02-4 1.4-15.97 8.62-18.02 4.98Z"/><path fill="#95969B" stroke="None" d="M353 154c.84 8.97 1.45 18.65 1 28 3.17.61 7.65-1.25 10 1 1.41 2.01-1.06 6.74 0 9h6c-.23-.35-.23-1.84 0-2-3.28 2.12-3.24-9.09 0-7-.46-1.42-4-4.38-4-5-3.45-.36 2.2-1 2-1 3.84-.39 7.44.38 11 1 .24-8.93-.76-18.79 1-27 .56-5.75-1.77-13.54 0-19-9.8.64-2.03 15.31-7.22 20.78s5.16 22.7-4.78 23.22v-38c-3.09 2.09-13.07-3.6-14.67.33s-.73 11.44-.33 15.67Z"/><path fill="#6C6D71" stroke="None" d="M624 145c.21 1.75.73 7.07 4 6 .66 6.5-1.32 14.33 1 20h4c1.07-4.37-1.01-6.74-3-9 5.33-.42 9.78-5.72 12-10 1.6 3.51 4.66 6.83 8 9-3.27-4.75-1.1-15.56-2-21v-6h-24c.33 3.63-.44 7.39 0 11Z"/><path fill="#909195" stroke="None" d="M655 140c-1.59 1.66-4.41 1.24-6 0 0 0-.99-.06-1 0 .9 5.44-1.27 16.25 2 21h4c-1.52 3.34-4.31 5.38-3 10 1.1.43 2.97-.56 4 0 2.1-.77.11-9.51.79-11.77.67-2.26-1.25-8.04-.58-11 .68-2.96.45-8.5.79-11.23-.35 1.09-.12 2.08-1 3Z"/><path fill="#525356" stroke="None" d="M245 149v1h6c0-3.91.76-8.53-1-12h-5z"/><path fill="#6C6D71" stroke="None" d="M251 150c0 1 .02 2 0 3-.03 1.87-.69 4.93 1 6 10.16-4.7 16.92-9.44 16-21h-17s-.53.11-1 0c1.76 3.47 1 8.09 1 12Z"/><path fill="#949599" stroke="None" d="M536 147c1.28 13.19 1.19 28.8 0 42 2.89.76 3.46-1.72 3-4 1.19-.35 2.85.46 4 0 .38-15.7-.86-31.65 1-47-2.22 2.02-.41 6.16-1 9-1.77-.82-5.42 1.09-7 0Z"/><path fill="#444547" stroke="None" d="M600 143c.5 1.76 2.72.72 4 1-4.06 5 .07 8.63 6 7-3.58 7.9 6.94 9.51 3 15 4.64-1.33 5.84 2.07 5 6 3.79.25 7.87.1 11-1-2.32-5.67-.34-13.5-1-20-3.27 1.07-3.79-4.25-4-6h-11c1.08-3.3-1.81-4.47-4-5h-9c.14.76 1.89 2.81 0 3Z"/><path fill="#BBBDBF" stroke="None" d="M655 140c-1.02.66-4.74 0-6 0 1.59 1.24 4.41 1.66 6 0Z"/><path fill="#4B4C4E" stroke="None" d="M576 151h5c.98-4.1-2.7-5.49 0-8-5.41.24.4 4.06-1 7-1.4-.91-3.27.9-4 1Z"/><path fill="#757679" stroke="None" d="M241 150c.27-.25 1 0 1 0h3v-1c-3.02.38-.33-3.13-3-4-1.09 1.52-.99 3.17-1 5Z"/><path fill="#8C8D91" stroke="None" d="M573 153c.13-.65.58-1.49 1-2 2.01-2.41 1.31-2.78 2-6-1.09.52-2.85-.4-4 0 0 2.64.92 6.07 1 8Z"/><path fill="#6C6D70" stroke="None" d="M680 156c2.69-.92 6.29.87 9 0-.26-.22-.65-.95-1-1-3-.43-6.39.87-9-1 1.05-2.32.95-4.61 0-7-.15-.51-.97-1.86-1-2 .01 2.37-.21 9.95 2 11Z"/><path fill="#96979C" stroke="None" d="M688 155v-7c-2.53-.71-7.01 1.32-9-1 .95 2.39 1.05 4.68 0 7 2.61 1.87 6 .57 9 1Z"/><path fill="#434446" stroke="None" d="M125 150c-1.03.1-3.02.31-4 0 2.42 4.11 4.89 4.9 0 8 5.82 1.17 8.52 7.33 15 6-3.21 2.96-7.72 5.16-12 6-.16 2.95 3.5 4.61 5 5 .57 3.05-3.37 2.62-4 5 3.88 2.52 9.66 3.67 11 8 2.2.74 9.01-.77 9-1 2.28-1.24.44-5.68-1-2v-36c-6.41-.62-12.96.41-19 1Z"/><path fill="#56575A" stroke="None" d="M241 153c.57 6.79-1 15.39-1 23 7.91-.72 23.15 4.26 20-9-4.48-.82-11.86-.48-13-6 1.71-.72 3.57-1.34 5-2-1.69-1.07-1.03-4.13-1-6h-9v-3s-.73-.25-1 0c-.01.98-.08 2.02 0 3Z"/><path fill="#1C1C1D" stroke="None" d="M251 153c.02-1 0-2 0-3h-9v3z"/><path fill="#8C8D92" stroke="None" d="M291 160c.31.24 1.54-.14 2 0 .82-1.84 0-5.96 0-8 .07.13-2.36.55-3-1 0 2.16-.96 7.49 1 9Z"/><path fill="#6B6C70" stroke="None" d="M212 169c7.5 0 15.55-.84 23 0 .11.01 2.18-1.91 3-1 .28 3.35-1.04 7.84 2 10-.08-.49 0-1.5 0-2 0-7.61 1.57-16.21 1-23-8.34 2.33-18.83.34-28 1-1.59 2.98 2.54 13.08-1 15Z"/><path fill="#68696C" stroke="None" d="M208 169h1c-.12-3.63.07-7.91 0-11-.04-1.59-.91-3.14-1-4-.45 4.52-1.5 10.66 0 15Z"/><path fill="#444547" stroke="None" d="M322 192c-.64 4.34.91 8.14 2 12 3.92-.49 8.74-.33 7 5h44c.66 3.56-2.28 11.55 4 10 .64-8.18-1.3-17.58 1-25 2.77 2.21-.72 7.72 2 10v-11c-4.05.65-8.64-.43-12-1h-6c-1.06-2.26 1.41-6.99 0-9h-11v-28c-3.68-1.68-3.32 7.02-7 3 0 0 .22-.62 0-1-2.52-.38-4.76.44-7 1 1.45-2.02-1.72-3.05-2-4h-3v28h-10c1.97 3.54-1.74 8.66-2 10Z"/><path fill="#6B6C6F" stroke="None" d="M346 158c3.68 4.02 3.32-4.68 7-3v28h11c-2.35-2.25-6.83-.39-10-1 .45-9.35-.16-19.03-1-28h-4c.25 2.65-.01 4.35-3 4Z"/><path fill="#656566" stroke="None" d="M149 177v-20c1.31.16 2.7-.21 4 0v-1c-8.82-2.25-4.37 17.18-4 21Z"/><path fill="#777" stroke="None" d="M92 164c1.95-.35 2.71-2.07 4-3-.13-1.03-1.17-1.59-2-2 .2 1.28-.59 4.46-2 5Z"/><path fill="#444547" stroke="None" d="M286 204c1.33.81 3.45.71 5 1 1.38-2.14 4.81-.48 7-1 1.67-4.18 1.77-8.72 3-13-3.96-.06-1.45-8.36-2-13s.41-12.1 0-17c-2.2.69-4.44-.53-6-1-.46-.14-1.69.24-2 0 5.76 8.18-10.38 2.4-11 10-.61 7.6 11.29 6.37 16 9-5.39 2.55-15.05 1.78-13.99 9.99S295.1 190.71 298 196c-3.96-.83-18.79 3.87-12 8Z"/><path fill="#8D8E91" stroke="None" d="M92 184c2.46-1.18 4.81-2.31 7-4-.81-2.1-3.92-3.23-3-6 2.5 2.06 3.76-2.11 4-4-3.48-.07-6.01-2.52-9-4 2.15 2.8 2.02 14.55 1 18Z"/><path fill="#4C4D4F" stroke="None" d="M235 169c3.14 1.52 4.74 14.78 6 19 .97 2.12 3.21 5.13 4 6 5.37-.64 17.99-.34 13-9 .43 2.29-3.26 5.26-4 7-1.82-2.58-.67-6.03-1-9h3c-2.96-1.84-15.58-2.36-16-5-3.04-2.16-1.72-6.65-2-10-.82-.91-2.89 1.01-3 1Z"/><path fill="#55565A" stroke="None" d="M366 178c-.58-.06 2.02-1 2-1 .2 0-5.45.64-2 1Z"/><path fill="#7C7C7C" stroke="None" d="M735 182c.42-2.79 1.74-3.09 1-5-2.16 1.79-1.38 3.24-1 5Z"/><path fill="#C1C2C6" stroke="None" d="M370 190h1c.26-.12.65-.93 1-1 .51-1.5.12-4.85-1-6 0 0-.65.23-1 0-3.24-2.09-3.28 9.12 0 7Z"/><path fill="#68696C" stroke="None" d="M258 185c-.6-1.05-.95-1.35-2-2h-3c.33 2.97-.82 6.42 1 9 .74-1.74 4.43-4.71 4-7Z"/><path fill="#8F9094" stroke="None" d="M372 189c2.26-.42 4.72.31 7 0v-6h-8c1.12 1.15 1.51 4.5 1 6Z"/><path fill="#383939" stroke="None" d="M79 188c.5.08 1.55.77 2 1 .25-.09.66-.99 1-1-.42-1.36-1.8-2.33-3-3-.4.6.5 2.5 0 3Z"/><path fill="#323232" stroke="None" d="M661 185c-2.29 3.34-.36 8.83-1 13 7.06.86 9.24-14.12 2-13 4.59 1.08 3.9 8.85 0 11-2.27-2.68-.38-7.5-1-11Z"/><path fill="#616161" stroke="None" d="M735 192c-.47-2.09 0-4.85 0-7-.58 2.66-1.13 4.19 0 7Z"/><path fill="#96979B" stroke="None" d="M76 202s.64.23 1 0c2.04-2.92 10.04-6.18 9-10-1.53-.99-3.18-2.07-5-3-.45-.23-1.5-.92-2-1h-3c.31 4.64-.42 9.37 0 14Z"/><path fill="#292929" stroke="None" d="M245 207c-1.63-.02-2.51-1.26-4 0-.42-5.29 3.36-7.63-2-11 .83-1.75 3.44-.66 5-1 .34 0 .8-.98 1-1-.79-.87-3.03-3.88-4-6 3.66 3.14 1.04 6.56-3 7 .9 4.73 4.46 10.82-1 14 2.8.13 5.75-1.48 8-2Z"/><path fill="#444547" stroke="None" d="M145 201c-1.84-1.79-1.62-9.59-1-12-4.33.74-7.69 4.26-12 5 2.3 2.74 8.71 6.12 13 7Z"/><path fill="#67686B" stroke="None" d="M371 190c2.11 0 6.76.85 8-1-2.28.31-4.74-.42-7 0-.35.07-.74.88-1 1Z"/><path fill="#626366" stroke="None" d="M77 202c4.35-1.66 8.35-4.42 13-5 1.22-3.91-1.79-3.58-4-5 1.04 3.82-6.96 7.08-9 10Z"/><path fill="#3C3C3C" stroke="None" d="M390 194c-2.19 1.7-.44 5.48-1 8 2.19-1.7.44-5.48 1-8Z"/><path fill="#4A4A4C" stroke="None" d="M245 207c4.37.31 7.91-2.37 12-3 1.52-6.7-12.22-4.33-13-9-1.56.34-4.17-.75-5 1 5.36 3.37 1.58 5.71 2 11 1.49-1.26 2.37-.02 4 0Z"/><path fill="#262626" stroke="None" d="M227 209c2.73-3.86-7.52-15.2-13.75-9.75s-7.95 13.73-17.24 13.76c-9.29.02-20.13 1.21-29.01 1.99 10.07-1.2 24.98 1.9 34.32-.68S207.21 200.24 218 198c1.75 4.64 10.44 5.88 6 11 5.99 1.04 9.97 3.17 10 10 1.08-5.12-.58-11.34-7-10Z"/><path fill="#292829" stroke="None" d="M291 205c-1.55-.29-3.67-.19-5-1 4.26 3.57 10.93 2.77 16 5-2.44 2.18-7.07.19-10 2-.2 10.32 10.03 14.21 17.98 8.98 7.94-5.24 16.84 1.08 24.02.02-12.57-8.85-24.49.66-38 0-.55-1.84-3.53-10.2 1-9s8.95-2.46 5-4-7.05-1.26-11-2Z"/><path fill="#313132" stroke="None" d="M240 219c11.13 1.63 8.97-13.97-2-9 2.45 2.39 2.11 5.74 2 9Z"/><path fill="#2D2C2C" stroke="None" d="M516 219c-5.21 5.69-19.03-2.84-22 6 3.19 3.82 8.25 8.37 14 6-2.54-1.27-5.66-1.87-8-3 2.21-2.77 7.72.72 10-2-4.76-.26-10.02 1.04-14-2 4.82-5.67 16.74 2.27 20-5Z"/><path fill="#333132" stroke="None" d="M389 220c-2.28 3.01-.37 8.17-1 12 7.1-.57 16.09.76 23 0s16.48 2.79 20-3c-12.7 4.55-28.2.75-42 2z"/><path fill="#A4A3A2" stroke="None" d="M806 224c-.61-1.75-2.48-2.68-3-4 .46 1.56 2.43 2.71 3 4Z"/><path fill="#2A292A" stroke="None" d="M456 225c-5.19 1.36-11.1 1.75-16 3 4.88 3.57 10.66-1.63 16-1 2.03 7.72 13.05 3.36 18.78.78s15.11 2.27 20.22 1.22c-5.62-3.43-14.58-4.64-20.78-2.78-6.2 1.87-15.5 6.5-18.22-1.22Z"/></svg>